<svg width="927" height="880" viewBox="0 0 927 880" fill="none" xmlns="http://www.w3.org/2000/svg">
<path d="M926.5 440C926.5 561.202 822.991 659.5 695.25 659.5C567.509 659.5 464 561.202 464 440C464 318.798 567.509 220.5 695.25 220.5C822.991 220.5 926.5 318.798 926.5 440Z" stroke="#A4A6D3"/>
<path d="M500.67 320.149C500.67 441.352 397.16 539.649 269.42 539.649C141.679 539.649 38.1696 441.352 38.1696 320.149C38.1696 198.947 141.679 100.649 269.42 100.649C397.16 100.649 500.67 198.947 500.67 320.149Z" stroke="#A4A6D3"/>
<path d="M788.924 640.298C788.924 761.501 685.415 859.798 557.674 859.798C429.933 859.798 326.424 761.501 326.424 640.298C326.424 519.096 429.933 420.798 557.674 420.798C685.415 420.798 788.924 519.096 788.924 640.298Z" stroke="#A4A6D3"/>
<path d="M729.963 223.284C729.963 344.486 626.454 442.784 498.713 442.784C370.972 442.784 267.463 344.486 267.463 223.284C267.463 102.081 370.972 3.78357 498.713 3.78357C626.454 3.78357 729.963 102.081 729.963 223.284Z" stroke="#A4A6D3"/>
<path d="M539.977 604.179C539.977 725.381 436.468 823.679 308.727 823.679C180.986 823.679 77.4771 725.381 77.4771 604.179C77.4771 482.977 180.986 384.679 308.727 384.679C436.468 384.679 539.977 482.977 539.977 604.179Z" stroke="#A4A6D3"/>
<path d="M918.311 382.537C918.311 503.74 814.802 602.037 687.061 602.037C559.32 602.037 455.811 503.74 455.811 382.537C455.811 261.335 559.32 163.037 687.061 163.037C814.802 163.037 918.311 261.335 918.311 382.537Z" stroke="#A4A6D3"/>
<path d="M474.465 372.687C474.465 493.889 370.955 592.187 243.215 592.187C115.474 592.187 11.9646 493.889 11.9646 372.687C11.9646 251.484 115.474 153.187 243.215 153.187C370.955 153.187 474.465 251.484 474.465 372.687Z" stroke="#A4A6D3"/>
<path d="M841.334 610.746C841.334 731.949 737.825 830.246 610.084 830.246C482.343 830.246 378.834 731.949 378.834 610.746C378.834 489.544 482.343 391.246 610.084 391.246C737.825 391.246 841.334 489.544 841.334 610.746Z" stroke="#A4A6D3"/>
<path d="M669.364 221.642C669.364 342.844 565.855 441.142 438.114 441.142C310.373 441.142 206.864 342.844 206.864 221.642C206.864 100.439 310.373 2.14178 438.114 2.14178C565.855 2.14178 669.364 100.439 669.364 221.642Z" stroke="#A4A6D3"/>
<path d="M590.749 637.015C590.749 758.217 487.24 856.515 359.499 856.515C231.758 856.515 128.249 758.217 128.249 637.015C128.249 515.813 231.758 417.515 359.499 417.515C487.24 417.515 590.749 515.813 590.749 637.015Z" stroke="#A4A6D3"/>
<path d="M895.382 328.358C895.382 449.559 791.507 547.858 663.313 547.858C535.118 547.858 431.244 449.559 431.244 328.358C431.244 207.158 535.118 108.858 663.313 108.858C791.507 108.858 895.382 207.158 895.382 328.358Z" stroke="#A4A6D3"/>
<path d="M463 430.149C463 551.352 359.491 649.649 231.75 649.649C104.009 649.649 0.5 551.352 0.5 430.149C0.5 308.947 104.009 210.649 231.75 210.649C359.491 210.649 463 308.947 463 430.149Z" stroke="#A4A6D3"/>
<path d="M883.917 568.06C883.917 689.262 780.408 787.56 652.667 787.56C524.926 787.56 421.417 689.262 421.417 568.06C421.417 446.857 524.926 348.56 652.667 348.56C780.408 348.56 883.917 446.857 883.917 568.06Z" stroke="#A4A6D3"/>
<path d="M608.765 234.776C608.765 355.978 505.256 454.276 377.515 454.276C249.774 454.276 146.265 355.978 146.265 234.776C146.265 113.574 249.774 15.2761 377.515 15.2761C505.256 15.2761 608.765 113.574 608.765 234.776Z" stroke="#A4A6D3"/>
<path d="M648.073 655.075C648.073 776.277 544.563 874.575 416.823 874.575C289.082 874.575 185.573 776.277 185.573 655.075C185.573 533.872 289.082 435.575 416.823 435.575C544.563 435.575 648.073 533.872 648.073 655.075Z" stroke="#A4A6D3"/>
<path d="M856.074 282.388C856.074 403.59 752.565 501.888 624.824 501.888C497.084 501.888 393.574 403.59 393.574 282.388C393.574 161.186 497.084 62.8881 624.824 62.8881C752.565 62.8881 856.074 161.186 856.074 282.388Z" stroke="#A4A6D3"/>
<path d="M467.913 487.612C467.913 608.814 364.404 707.112 236.663 707.112C108.923 707.112 5.41333 608.814 5.41333 487.612C5.41333 366.41 108.923 268.112 236.663 268.112C364.404 268.112 467.913 366.41 467.913 487.612Z" stroke="#A4A6D3"/>
<path d="M911.76 515.522C911.76 636.725 808.25 735.022 680.51 735.022C552.769 735.022 449.26 636.725 449.26 515.522C449.26 394.32 552.769 296.022 680.51 296.022C808.25 296.022 911.76 394.32 911.76 515.522Z" stroke="#A4A6D3"/>
<path d="M556.355 264.328C556.355 385.531 452.846 483.828 325.105 483.828C197.365 483.828 93.8552 385.531 93.8552 264.328C93.8552 143.126 197.365 44.8284 325.105 44.8284C452.846 44.8284 556.355 143.126 556.355 264.328Z" stroke="#A4A6D3"/>
<path d="M710.309 660C710.309 781.202 606.8 879.5 479.059 879.5C351.319 879.5 247.809 781.202 247.809 660C247.809 538.798 351.319 440.5 479.059 440.5C606.8 440.5 710.309 538.798 710.309 660Z" stroke="#A4A6D3"/>
<path d="M806.94 247.91C806.94 369.113 703.431 467.41 575.69 467.41C447.949 467.41 344.44 369.113 344.44 247.91C344.44 126.708 447.949 28.4105 575.69 28.4105C703.431 28.4105 806.94 126.708 806.94 247.91Z" stroke="#A4A6D3"/>
<path d="M489.205 543.433C489.205 664.635 385.696 762.933 257.955 762.933C130.214 762.933 26.705 664.635 26.705 543.433C26.705 422.231 130.214 323.933 257.955 323.933C385.696 323.933 489.205 422.231 489.205 543.433Z" stroke="#A4A6D3"/>
<path d="M924.862 459.701C924.862 580.904 821.353 679.201 693.612 679.201C565.871 679.201 462.362 580.904 462.362 459.701C462.362 338.499 565.871 240.201 693.612 240.201C821.353 240.201 924.862 338.499 924.862 459.701Z" stroke="#A4A6D3"/>
<path d="M512.134 303.731C512.134 424.934 408.625 523.231 280.884 523.231C153.144 523.231 49.6344 424.934 49.6344 303.731C49.6344 182.529 153.144 84.2313 280.884 84.2313C408.625 84.2313 512.134 182.529 512.134 303.731Z" stroke="#A4A6D3"/>
<path d="M770.908 648.507C770.908 769.71 667.399 868.007 539.658 868.007C411.917 868.007 308.408 769.71 308.408 648.507C308.408 527.305 411.917 429.007 539.658 429.007C667.399 429.007 770.908 527.305 770.908 648.507Z" stroke="#A4A6D3"/>
<path d="M751.254 226.567C751.254 347.77 647.745 446.067 520.004 446.067C392.264 446.067 288.754 347.77 288.754 226.567C288.754 105.365 392.264 7.0672 520.004 7.0672C647.745 7.0672 751.254 105.365 751.254 226.567Z" stroke="#A4A6D3"/>
<path d="M525.237 591.045C525.237 712.247 421.727 810.545 293.987 810.545C166.246 810.545 62.7367 712.247 62.7367 591.045C62.7367 469.842 166.246 371.545 293.987 371.545C421.727 371.545 525.237 469.842 525.237 591.045Z" stroke="#A4A6D3"/>
<path d="M923.224 400.597C923.224 521.799 819.715 620.097 691.974 620.097C564.234 620.097 460.724 521.799 460.724 400.597C460.724 279.395 564.234 181.097 691.974 181.097C819.715 181.097 923.224 279.395 923.224 400.597Z" stroke="#A4A6D3"/>
<path d="M481.016 354.627C481.016 475.829 377.507 574.127 249.766 574.127C122.025 574.127 18.5159 475.829 18.5159 354.627C18.5159 233.425 122.025 135.127 249.766 135.127C377.507 135.127 481.016 233.425 481.016 354.627Z" stroke="#A4A6D3"/>
<path d="M824.956 622.239C824.956 743.441 721.447 841.739 593.706 841.739C465.965 841.739 362.456 743.441 362.456 622.239C362.456 501.036 465.965 402.739 593.706 402.739C721.447 402.739 824.956 501.036 824.956 622.239Z" stroke="#A4A6D3"/>
<path d="M689.018 220C689.018 341.202 585.508 439.5 457.768 439.5C330.027 439.5 226.518 341.202 226.518 220C226.518 98.7977 330.027 0.5 457.768 0.5C585.508 0.5 689.018 98.7977 689.018 220Z" stroke="#A4A6D3"/>
<path d="M572.733 627.164C572.733 748.366 469.224 846.664 341.483 846.664C213.742 846.664 110.233 748.366 110.233 627.164C110.233 505.962 213.742 407.664 341.483 407.664C469.224 407.664 572.733 505.962 572.733 627.164Z" stroke="#A4A6D3"/>
<path d="M903.571 346.418C903.571 467.62 800.061 565.918 672.321 565.918C544.58 565.918 441.071 467.62 441.071 346.418C441.071 225.216 544.58 126.918 672.321 126.918C800.061 126.918 903.571 225.216 903.571 346.418Z" stroke="#A4A6D3"/>
<path d="M464.638 410.448C464.638 531.65 361.128 629.948 233.388 629.948C105.647 629.948 2.1377 531.65 2.1377 410.448C2.1377 289.245 105.647 190.948 233.388 190.948C361.128 190.948 464.638 289.245 464.638 410.448Z" stroke="#A4A6D3"/>
<path d="M870.814 582.836C870.814 704.038 767.305 802.336 639.564 802.336C511.824 802.336 408.314 704.038 408.314 582.836C408.314 461.634 511.824 363.336 639.564 363.336C767.305 363.336 870.814 461.634 870.814 582.836Z" stroke="#A4A6D3"/>
<path d="M628.419 229.03C628.419 350.687 524.908 449.351 397.169 449.351C269.43 449.351 165.919 350.687 165.919 229.03C165.919 107.372 269.43 8.70892 397.169 8.70892C524.908 8.70892 628.419 107.372 628.419 229.03Z" stroke="#A4A6D3"/>
<path d="M628.419 650.97C628.419 772.628 524.908 871.291 397.169 871.291C269.43 871.291 165.919 772.628 165.919 650.97C165.919 529.313 269.43 430.649 397.169 430.649C524.908 430.649 628.419 529.313 628.419 650.97Z" stroke="#A4A6D3"/>
<path d="M870.814 297.164C870.814 418.366 767.305 516.664 639.564 516.664C511.824 516.664 408.314 418.366 408.314 297.164C408.314 175.962 511.824 77.6642 639.564 77.6642C767.305 77.6642 870.814 175.962 870.814 297.164Z" stroke="#A4A6D3"/>
<path d="M464.638 469.552C464.638 590.755 361.128 689.052 233.388 689.052C105.647 689.052 2.1377 590.755 2.1377 469.552C2.1377 348.35 105.647 250.052 233.388 250.052C361.128 250.052 464.638 348.35 464.638 469.552Z" stroke="#A4A6D3"/>
<path d="M903.571 533.582C903.571 654.784 800.061 753.082 672.321 753.082C544.58 753.082 441.071 654.784 441.071 533.582C441.071 412.38 544.58 314.082 672.321 314.082C800.061 314.082 903.571 412.38 903.571 533.582Z" stroke="#A4A6D3"/>
<path d="M572.733 252.836C572.733 374.038 469.224 472.336 341.483 472.336C213.742 472.336 110.233 374.038 110.233 252.836C110.233 131.634 213.742 33.3358 341.483 33.3358C469.224 33.3358 572.733 131.634 572.733 252.836Z" stroke="#A4A6D3"/>
<path d="M689.018 660C689.018 781.202 585.508 879.5 457.768 879.5C330.027 879.5 226.518 781.202 226.518 660C226.518 538.798 330.027 440.5 457.768 440.5C585.508 440.5 689.018 538.798 689.018 660Z" stroke="#A4A6D3"/>
<path d="M824.956 257.761C824.956 378.963 721.447 477.261 593.706 477.261C465.965 477.261 362.456 378.963 362.456 257.761C362.456 136.559 465.965 38.2612 593.706 38.2612C721.447 38.2612 824.956 136.559 824.956 257.761Z" stroke="#A4A6D3"/>
<path d="M481.016 525.373C481.016 646.575 377.507 744.873 249.766 744.873C122.025 744.873 18.5159 646.575 18.5159 525.373C18.5159 404.171 122.025 305.873 249.766 305.873C377.507 305.873 481.016 404.171 481.016 525.373Z" stroke="#A4A6D3"/>
<path d="M923.224 479.403C923.224 600.605 819.715 698.903 691.974 698.903C564.234 698.903 460.724 600.605 460.724 479.403C460.724 358.201 564.234 259.903 691.974 259.903C819.715 259.903 923.224 358.201 923.224 479.403Z" stroke="#A4A6D3"/>
<path d="M525.237 288.955C525.237 410.158 421.727 508.455 293.987 508.455C166.246 508.455 62.7367 410.158 62.7367 288.955C62.7367 167.753 166.246 69.4553 293.987 69.4553C421.727 69.4553 525.237 167.753 525.237 288.955Z" stroke="#A4A6D3"/>
<path d="M751.254 653.433C751.254 774.634 647.38 872.933 519.186 872.933C390.991 872.933 287.117 774.634 287.117 653.433C287.117 532.232 390.991 433.933 519.186 433.933C647.38 433.933 751.254 532.232 751.254 653.433Z" stroke="#A4A6D3"/>
<path d="M770.908 231.493C770.908 352.695 667.399 450.993 539.658 450.993C411.917 450.993 308.408 352.695 308.408 231.493C308.408 110.29 411.917 11.9926 539.658 11.9926C667.399 11.9926 770.908 110.29 770.908 231.493Z" stroke="#A4A6D3"/>
<path d="M512.134 576.269C512.134 697.471 408.625 795.769 280.884 795.769C153.144 795.769 49.6344 697.471 49.6344 576.269C49.6344 455.066 153.144 356.769 280.884 356.769C408.625 356.769 512.134 455.066 512.134 576.269Z" stroke="#A4A6D3"/>
<path d="M924.862 420.299C924.862 541.501 821.353 639.799 693.612 639.799C565.871 639.799 462.362 541.501 462.362 420.299C462.362 299.096 565.871 200.799 693.612 200.799C821.353 200.799 924.862 299.096 924.862 420.299Z" stroke="#A4A6D3"/>
</svg>
