<svg width="831" height="918" viewBox="0 0 831 918" fill="none" xmlns="http://www.w3.org/2000/svg">
<path d="M399.244 523.872L207.587 653.201L43.4093 490.4L133.63 260.375L353.502 281.057L399.244 523.872Z" stroke="#A4A6D3"/>
<path d="M733.855 671.86L542.198 801.189L378.02 638.388L468.241 408.363L688.113 429.045L733.855 671.86Z" stroke="#A4A6D3"/>
<path d="M529.014 340.218L337.357 469.548L173.18 306.746L263.401 76.721L483.272 97.4037L529.014 340.218Z" stroke="#A4A6D3"/>
<path d="M538.788 748.583L346.625 878.212L182.006 715.021L272.46 484.457L492.917 505.195L538.788 748.583Z" stroke="#A4A6D3"/>
<path d="M726.755 394.978L535.098 524.307L370.92 361.506L461.141 131.481L681.013 152.164L726.755 394.978Z" stroke="#A4A6D3"/>
<path d="M400.969 580.281L209.311 709.611L45.1339 546.809L135.355 316.784L355.226 337.467L400.969 580.281Z" stroke="#A4A6D3"/>
<path d="M759.539 623.051L567.882 752.38L403.704 589.578L493.925 359.554L713.797 380.236L759.539 623.051Z" stroke="#A4A6D3"/>
<path d="M483.394 366.059L291.736 495.389L127.559 332.587L217.78 102.562L437.651 123.245L483.394 366.059Z" stroke="#A4A6D3"/>
<path d="M587.471 754.514L395.813 883.843L231.636 721.041L321.857 491.017L541.728 511.699L587.471 754.514Z" stroke="#A4A6D3"/>
<path d="M688.871 359.931L497.181 489.603L333.036 326.458L423.31 95.8767L643.181 116.559L688.871 359.931Z" stroke="#A4A6D3"/>
<path d="M415.015 633.832L223.358 763.162L59.1805 600.36L149.401 370.335L369.273 391.018L415.015 633.832Z" stroke="#A4A6D3"/>
<path d="M773.683 568.792L581.993 698.464L417.848 535.319L508.122 304.738L727.993 325.42L773.683 568.792Z" stroke="#A4A6D3"/>
<path d="M445.703 403.695L254.046 533.024L89.8686 370.222L180.09 140.198L399.961 160.88L445.703 403.695Z" stroke="#A4A6D3"/>
<path d="M637.567 745.164L445.909 874.494L281.732 711.692L371.953 481.667L591.824 502.35L637.567 745.164Z" stroke="#A4A6D3"/>
<path d="M643.824 336.956L452.167 466.286L287.99 303.484L378.211 73.459L598.082 94.1417L643.824 336.956Z" stroke="#A4A6D3"/>
<path d="M441.697 681.194L250.007 810.866L85.8618 647.722L176.136 417.14L396.007 437.823L441.697 681.194Z" stroke="#A4A6D3"/>
<path d="M774.982 512.009L582.851 641.295L418.201 478.447L508.602 248.44L729.059 269.178L774.982 512.009Z" stroke="#A4A6D3"/>
<path d="M418.122 451.321L226.464 580.65L62.287 417.849L152.508 187.824L372.379 208.506L418.122 451.321Z" stroke="#A4A6D3"/>
<path d="M682.906 722.31L491.249 851.639L327.072 688.838L417.293 458.813L637.164 479.496L682.906 722.31Z" stroke="#A4A6D3"/>
<path d="M594.419 328.291L402.761 457.621L238.584 294.819L328.805 64.794L548.676 85.4767L594.419 328.291Z" stroke="#A4A6D3"/>
</svg>
